<svg xmlns="http://www.w3.org/2000/svg" viewBox="0 0 51.46 16.11"><defs><style>.cls-1{fill:#aaa;}.cls-2{fill:#c3c3c3;}</style></defs><title>Ресурс 46</title><g id="Слой_2" data-name="Слой 2"><g id="иконки"><path class="cls-1" d="M21,0,18.45,16.07h4.13L25.16,0ZM33.49,6.55C32,5.83,31.16,5.35,31.16,4.63s.75-1.34,2.38-1.34a7.18,7.18,0,0,1,3.08.6L37,4,37.55.68A10.42,10.42,0,0,0,33.85,0c-4.08,0-6.95,2.12-7,5.15,0,2.24,2.06,3.48,3.62,4.22s2.14,1.26,2.14,1.94c0,1-1.29,1.52-2.48,1.52A8.4,8.4,0,0,1,26.29,12l-.54-.25-.58,3.49a12.89,12.89,0,0,0,4.6.83c4.33,0,7.15-2.09,7.19-5.32C37,9,35.87,7.66,33.49,6.55ZM48.14,0H44.94a2,2,0,0,0-2.16,1.29L36.65,16.07H41l1.19-3.19H47l.62,3.2h3.82ZM43.38,9.67c.08,0,1.66-5.21,1.66-5.21L46.3,9.67ZM15,0,11,10.92l-.44-2.15A12,12,0,0,0,4.81,2.24l3.7,13.82h4.37L19.37,0H15Z"/><path class="cls-2" d="M9.16,2.07A2.7,2.7,0,0,0,6.47,0H.07L0,.3c5,1.23,9.19,5,10.55,8.59Z"/></g></g></svg>