<svg xmlns="http://www.w3.org/2000/svg" viewBox="0 0 42.37 24.5"><defs><style>.cls-1{fill:#d0d0d0;}.cls-2{fill:#aaa;}.cls-3{fill:#fff;}</style></defs><title>Ресурс 47</title><g id="Слой_2" data-name="Слой 2"><g id="иконки"><path class="cls-1" d="M42.37,12.25A12.48,12.48,0,0,1,29.66,24.5,12.52,12.52,0,0,1,16.95,12.25h0A12.46,12.46,0,0,1,29.59,0,12.49,12.49,0,0,1,42.37,12.25Z"/><path class="cls-2" d="M12.58,0A12.49,12.49,0,0,0,0,12.25,12.48,12.48,0,0,0,12.71,24.5a13.13,13.13,0,0,0,8.54-3.18h0A11.84,11.84,0,0,0,22.53,20H19.91A15,15,0,0,1,19,18.8h4.51a8.22,8.22,0,0,0,.74-1.3h-6a7.56,7.56,0,0,1-.54-1.3h7a12.45,12.45,0,0,0,.67-3.89,16.14,16.14,0,0,0-.27-2.59h-7.8a9.19,9.19,0,0,1,.34-1.3h7a7.56,7.56,0,0,0-.54-1.3H18.16a12.72,12.72,0,0,1,.74-1.3h4.51a6.19,6.19,0,0,0-1-1.3H19.91a11.27,11.27,0,0,1,1.28-1.23A12.67,12.67,0,0,0,12.64.13C12.64,0,12.64,0,12.58,0Z"/><path class="cls-3" d="M17.22,15.36l.2-1.1a3,3,0,0,1-.34.06c-.47,0-.54-.26-.47-.39l.4-2.27h.74l.2-1.23h-.67l.13-.78H16.07s-.81,4.28-.81,4.8a1,1,0,0,0,1.08,1.1A2.13,2.13,0,0,0,17.22,15.36Z"/><path class="cls-3" d="M17.69,13.29A2.11,2.11,0,0,0,20,15.56a3.61,3.61,0,0,0,1.41-.19l.27-1.23a4.15,4.15,0,0,1-1.41.32c-1.48,0-1.21-1-1.21-1h2.76a8.13,8.13,0,0,0,.2-1.17,1.79,1.79,0,0,0-2-1.88C18.7,10.24,17.69,11.67,17.69,13.29ZM20,11.41c.74,0,.61.84.61.91H19.17C19.17,12.25,19.3,11.41,20,11.41Z"/><path class="cls-3" d="M28.59,15.36l.27-1.43a3.4,3.4,0,0,1-1.14.32,1.33,1.33,0,0,1-1.35-1.49c0-1.56.81-2.4,1.75-2.4a2.3,2.3,0,0,1,1.21.39l.2-1.36A4.88,4.88,0,0,0,28,9.07c-1.55,0-3.09,1.3-3.09,3.76,0,1.62.81,2.72,2.42,2.72A6.24,6.24,0,0,0,28.59,15.36Z"/><path class="cls-3" d="M9.82,10.24a4.92,4.92,0,0,0-1.61.26L8,11.6a4.1,4.1,0,0,1,1.48-.26c.47,0,.87.06.87.45s-.07.32-.07.32H9.69c-1.14,0-2.42.45-2.42,1.94a1.26,1.26,0,0,0,1.28,1.43A2.05,2.05,0,0,0,10,14.91l-.07.52H11.1l.54-3.56A1.58,1.58,0,0,0,9.82,10.24Zm.27,2.92c0,.19-.13,1.23-.94,1.23a.51.51,0,0,1-.54-.52c0-.32.2-.78,1.21-.78A1.09,1.09,0,0,0,10.09,13.16Z"/><path class="cls-3" d="M12.91,15.49c.34,0,2,.06,2-1.69s-1.61-1.3-1.61-1.94c0-.32.27-.45.74-.45.2,0,.94.06.94.06l.2-1.17a5.29,5.29,0,0,0-1.28-.13c-1,0-2,.39-2,1.69,0,1.49,1.68,1.36,1.68,1.94,0,.39-.47.45-.81.45a4.55,4.55,0,0,1-1.21-.19l-.2,1.17C11.43,15.36,11.77,15.49,12.91,15.49Z"/><path class="cls-3" d="M39.75,9.2,39.48,11a1.88,1.88,0,0,0-1.28-.65c-1.21,0-2.29,1.43-2.29,3.11,0,1,.54,2.14,1.68,2.14A1.82,1.82,0,0,0,38.88,15l-.07.45h1.35l1-6.22Zm-.61,3.44c0,.71-.34,1.62-1.08,1.62-.47,0-.74-.39-.74-1,0-1,.47-1.69,1.08-1.69S39.14,11.86,39.14,12.64Z"/><path class="cls-3" d="M2.49,15.43l.81-4.67.13,4.67h.94l1.75-4.67-.74,4.67H6.79L7.87,9.2H5.65L4.3,13,4.24,9.2h-2L1.21,15.43Z"/><path class="cls-3" d="M23.34,15.43c.4-2.14.47-3.89,1.41-3.56a5,5,0,0,1,.47-1.49H25c-.61,0-1.08.78-1.08.78l.13-.71H22.73l-.87,5.06h1.48Z"/><path class="cls-3" d="M31.68,10.24a4.92,4.92,0,0,0-1.61.26l-.2,1.1a4.1,4.1,0,0,1,1.48-.26c.47,0,.87.06.87.45s-.07.32-.07.32h-.61c-1.14,0-2.42.45-2.42,1.94a1.26,1.26,0,0,0,1.28,1.43,2.05,2.05,0,0,0,1.41-.58l-.07.52H33l.54-3.56C33.56,10.31,32.15,10.24,31.68,10.24ZM32,13.16c0,.19-.13,1.23-.94,1.23a.51.51,0,0,1-.54-.52c0-.32.2-.78,1.21-.78C31.95,13.16,31.95,13.16,32,13.16Z"/><path class="cls-3" d="M34.64,15.43c.4-2.14.47-3.89,1.41-3.56a5,5,0,0,1,.47-1.49h-.27c-.61,0-1.08.78-1.08.78l.13-.71H34l-.87,5.06h1.48Z"/></g></g></svg>